<svg xmlns="http://www.w3.org/2000/svg" viewBox="0 0 1080 200">
  <!-- Icon -->
  <g>
    <rect x="0" y="0" width="200" height="200.2" rx="40.7" ry="40.7" fill="#1A1A1A"/>
    <path fill="#F5EFE5" transform="scale(0.1852)" d="M 400.2,380.6 L 400.5,500.3 L 508.6,382.4 L 616.8,264.5 L 618.7,262.7 L 620.7,261.0 L 692.4,261.2 L 764.2,261.5 L 663.9,365.4 L 563.5,469.3 L 563.2,470.1 L 562.9,470.9 L 661.9,623.1 L 761.0,775.3 L 761.0,780.4 L 761.0,785.6 L 762.5,791.3 L 764.0,797.1 L 764.0,797.5 L 764.0,798.0 L 700.1,798.0 L 636.3,798.0 L 562.4,672.0 L 488.5,546.0 L 487.7,546.3 L 486.9,546.5 L 443.5,591.0 L 400.1,635.5 L 400.1,716.7 L 400.0,798.0 L 346.0,798.0 L 292.0,798.0 L 292.0,529.5 L 292.0,261.0 L 346.0,261.0 L 400.0,261.0 L 400.2,380.6 Z"/>
    <circle cx="151.7" cy="143.8" r="10.7" fill="#4637D8"/>
  </g>
  <!-- Wordmark -->
  <text x="240" y="152" font-family="Manrope, Arial, sans-serif" font-weight="800" font-size="140" fill="#1A1A1A">Karmatik<tspan fill="#4637D8" font-size="90" dx="8" dy="-6">●</tspan></text>

</svg>
